<?xml version="1.0" encoding="utf-8"?>
<!-- Generator: Adobe Illustrator 23.0.1, SVG Export Plug-In . SVG Version: 6.00 Build 0)  -->
<svg version="1.1" id="Layer_1" xmlns="http://www.w3.org/2000/svg" xmlns:xlink="http://www.w3.org/1999/xlink" x="0px" y="0px"
	 viewBox="0 0 46.6 46.6" style="enable-background:new 0 0 46.6 46.6;" xml:space="preserve">
<style type="text/css">
	.st0{fill:#FFFFFF;}
	.st1{fill:#016954;}
</style>
<g id="Group_14469" transform="translate(-886.74 -1045.341)">
	<g id="Group_14311" transform="translate(892.207 1050.801)">
		<path id="Path_7466" class="st0" d="M17.8,35.6c9.8,0,17.8-8,17.8-17.8c0,0,0,0,0,0C35.6,8,27.7,0,17.8,0C8,0,0,8,0,17.8
			C0,27.7,8,35.6,17.8,35.6C17.8,35.6,17.8,35.6,17.8,35.6"/>
	</g>
	<g id="Group_14312" transform="translate(886.74 1045.341)">
		<path id="Path_7467" class="st1" d="M46.6,24c-0.4,12.9-11.2,22.9-24,22.5c-0.1,0-0.2,0-0.3,0C9.4,45.9-0.5,35.1,0,22.3
			C0.5,9.5,11.3-0.5,24.2,0c0,0,0.1,0,0.1,0C37,0.6,47,11.3,46.6,24 M23.2,14.1c-3.3,0.2-6.7,0.3-10,0.5c-1.7,0-3.1,1.5-3.1,3.2
			c0,0,0,0.1,0,0.1c0,3.5,0,6.9,0,10.4c-0.1,1.8,1.2,3.3,3,3.4c0.1,0,0.1,0,0.2,0c2.4,0.1,4.9,0.4,7.3,0.3c4.2,0,8.3-0.2,12.5-0.3
			c1.7,0,3.1-1.4,3.1-3.1c0,0,0-0.1,0-0.1c0-3.6,0-7.2,0-10.7c0-1.7-1.3-3.1-3-3.2c0,0,0,0,0,0C29.9,14.4,26.6,14.3,23.2,14.1"/>
	</g>
	<g id="Group_14313" transform="translate(906.066 1063.496)">
		<path id="Path_7468" class="st1" d="M0,0l8.8,5.1L0,10.1V0z"/>
	</g>
</g>
</svg>
